<?xml version="1.0" encoding="UTF-8" standalone="no"?>
<!DOCTYPE svg PUBLIC "-//W3C//DTD SVG 1.0//EN" "http://www.w3.org/TR/2001/REC-SVG-20010904/DTD/svg10.dtd">
<!-- Generated by Microsoft Visio 11.0, SVG Export, v1.0 flag.svg Page-1 -->
<svg xmlns="http://www.w3.org/2000/svg" xmlns:xlink="http://www.w3.org/1999/xlink" xmlns:ev="http://www.w3.org/2001/xml-events"
		xmlns:v="http://schemas.microsoft.com/visio/2003/SVGExtensions/" width="15.8817in" height="8.35838in"
		viewBox="0 0 1143.48 601.803" xml:space="preserve" color-interpolation-filters="sRGB" class="st6">
	<v:documentProperties v:langID="1033" v:viewMarkup="false"/>

	<style type="text/css">
	<![CDATA[
		.st1 {fill:#ff0000;stroke:#000000;stroke-linecap:round;stroke-linejoin:round;stroke-width:0.24}
		.st2 {fill:#3c3b6e;stroke:none;stroke-linecap:butt;stroke-width:0.125}
		.st3 {fill:#3c3b6e;stroke:#000000;stroke-linecap:butt;stroke-width:0.125}
		.st4 {fill:#e8eef7;stroke:#000000;stroke-linecap:round;stroke-linejoin:round;stroke-width:0.24}
		.st5 {fill:none;stroke:#000000;stroke-linecap:round;stroke-linejoin:round;stroke-width:0.24}
		.st6 {fill:none;fill-rule:evenodd;font-size:12px;overflow:visible;stroke-linecap:square;stroke-miterlimit:3}
	]]>
	</style>

	<g v:mID="0" v:index="1" v:groupContext="foregroundPage">
		<title>Page-1</title>
		<v:pageProperties v:drawingScale="1" v:pageScale="1" v:drawingUnits="19" v:shadowOffsetX="9" v:shadowOffsetY="-9"/>
		<g id="shape85-1" v:mID="85" v:groupContext="shape" transform="translate(0.24,-0.24)">
			<title>Rectangle.85</title>
			<v:userDefs>
				<v:ud v:nameU="visVersion" v:val="VT0(14):26"/>
			</v:userDefs>
			<rect x="0" y="0.48" width="1143" height="601.323" class="st1"/>
		</g>
		<g id="shape3-3" v:mID="3" v:groupContext="shape" transform="translate(0.24,-277.667)">
			<title>Sheet.3</title>
			<rect x="0" y="277.907" width="456.83" height="323.896" class="st2"/>
		</g>
		<g id="shape4-5" v:mID="4" v:groupContext="shape" transform="translate(5.78854,-283.216)">
			<title>Sheet.4</title>
			<rect x="0" y="289.235" width="445.271" height="312.568" class="st3"/>
		</g>
		<g id="shape1-7" v:mID="1" v:groupContext="shape" transform="translate(456.608,-508.625)">
			<title>Rectangle</title>
			<v:userDefs>
				<v:ud v:nameU="visVersion" v:val="VT0(14):26"/>
			</v:userDefs>
			<rect x="0" y="555.334" width="685.245" height="46.4691" class="st4"/>
		</g>
		<g id="shape80-9" v:mID="80" v:groupContext="shape" transform="translate(456.608,-416.381)">
			<title>Rectangle.80</title>
			<v:userDefs>
				<v:ud v:nameU="visVersion" v:val="VT0(14):26"/>
			</v:userDefs>
			<rect x="0" y="555.334" width="685.245" height="46.4691" class="st4"/>
		</g>
		<g id="shape81-11" v:mID="81" v:groupContext="shape" transform="translate(456.608,-323.789)">
			<title>Rectangle.81</title>
			<v:userDefs>
				<v:ud v:nameU="visVersion" v:val="VT0(14):26"/>
			</v:userDefs>
			<rect x="0" y="555.334" width="685.245" height="46.4691" class="st4"/>
		</g>
		<g id="shape82-13" v:mID="82" v:groupContext="shape" transform="translate(0.24,-231.198)">
			<title>Rectangle.82</title>
			<v:userDefs>
				<v:ud v:nameU="visVersion" v:val="VT0(14):26"/>
			</v:userDefs>
			<rect x="0" y="555.334" width="1141.61" height="46.4691" class="st4"/>
		</g>
		<g id="shape83-15" v:mID="83" v:groupContext="shape" transform="translate(0.24,-138.954)">
			<title>Rectangle.83</title>
			<v:userDefs>
				<v:ud v:nameU="visVersion" v:val="VT0(14):26"/>
			</v:userDefs>
			<rect x="0" y="555.334" width="1141.61" height="46.4691" class="st4"/>
		</g>
		<g id="shape84-17" v:mID="84" v:groupContext="shape" transform="translate(0.24,-46.3623)">
			<title>Rectangle.84</title>
			<v:userDefs>
				<v:ud v:nameU="visVersion" v:val="VT0(14):26"/>
			</v:userDefs>
			<rect x="0" y="555.334" width="1141.61" height="46.4691" class="st4"/>
		</g>
		<g id="shape79-19" v:mID="79" v:groupContext="shape" transform="translate(21.7406,-554.054)">
			<title>Star 5</title>
			<v:userDefs>
				<v:ud v:nameU="visVersion" v:val="VT0(14):26"/>
			</v:userDefs>
			<path d="M20.58 581.23 L16.65 568.51 L12.51 581.23 L-0.86 581.23 L9.96 589.09 L5.83 601.8 L16.65 593.94 L27.46 601.8
						 L23.33 589.09 L34.15 581.23 L20.58 581.23 Z" class="st5"/>
		</g>
		<g id="shape86-21" v:mID="86" v:groupContext="shape" transform="translate(97.6863,-554.054)">
			<title>Star 5.86</title>
			<v:userDefs>
				<v:ud v:nameU="visVersion" v:val="VT0(14):26"/>
			</v:userDefs>
			<path d="M20.58 581.23 L16.65 568.51 L12.51 581.23 L-0.86 581.23 L9.96 589.09 L5.83 601.8 L16.65 593.94 L27.46 601.8
						 L23.33 589.09 L34.15 581.23 L20.58 581.23 Z" class="st5"/>
		</g>
		<g id="shape87-23" v:mID="87" v:groupContext="shape" transform="translate(173.979,-554.054)">
			<title>Star 5.87</title>
			<v:userDefs>
				<v:ud v:nameU="visVersion" v:val="VT0(14):26"/>
			</v:userDefs>
			<path d="M20.58 581.23 L16.65 568.51 L12.51 581.23 L-0.86 581.23 L9.96 589.09 L5.83 601.8 L16.65 593.94 L27.46 601.8
						 L23.33 589.09 L34.15 581.23 L20.58 581.23 Z" class="st5"/>
		</g>
		<g id="shape88-25" v:mID="88" v:groupContext="shape" transform="translate(249.924,-554.054)">
			<title>Star 5.88</title>
			<v:userDefs>
				<v:ud v:nameU="visVersion" v:val="VT0(14):26"/>
			</v:userDefs>
			<path d="M20.58 581.23 L16.65 568.51 L12.51 581.23 L-0.86 581.23 L9.96 589.09 L5.83 601.8 L16.65 593.94 L27.46 601.8
						 L23.33 589.09 L34.15 581.23 L20.58 581.23 Z" class="st5"/>
		</g>
		<g id="shape89-27" v:mID="89" v:groupContext="shape" transform="translate(326.217,-554.054)">
			<title>Star 5.89</title>
			<v:userDefs>
				<v:ud v:nameU="visVersion" v:val="VT0(14):26"/>
			</v:userDefs>
			<path d="M20.58 581.23 L16.65 568.51 L12.51 581.23 L-0.86 581.23 L9.96 589.09 L5.83 601.8 L16.65 593.94 L27.46 601.8
						 L23.33 589.09 L34.15 581.23 L20.58 581.23 Z" class="st5"/>
		</g>
		<g id="shape90-29" v:mID="90" v:groupContext="shape" transform="translate(402.509,-554.054)">
			<title>Star 5.90</title>
			<v:userDefs>
				<v:ud v:nameU="visVersion" v:val="VT0(14):26"/>
			</v:userDefs>
			<path d="M20.58 581.23 L16.65 568.51 L12.51 581.23 L-0.86 581.23 L9.96 589.09 L5.83 601.8 L16.65 593.94 L27.46 601.8
						 L23.33 589.09 L34.15 581.23 L20.58 581.23 Z" class="st5"/>
		</g>
		<g id="shape91-31" v:mID="91" v:groupContext="shape" transform="translate(59.8868,-521.803)">
			<title>Star 5.91</title>
			<v:userDefs>
				<v:ud v:nameU="visVersion" v:val="VT0(14):26"/>
			</v:userDefs>
			<path d="M20.58 581.23 L16.65 568.51 L12.51 581.23 L-0.86 581.23 L9.96 589.09 L5.83 601.8 L16.65 593.94 L27.46 601.8
						 L23.33 589.09 L34.15 581.23 L20.58 581.23 Z" class="st5"/>
		</g>
		<g id="shape92-33" v:mID="92" v:groupContext="shape" transform="translate(135.833,-521.803)">
			<title>Star 5.92</title>
			<v:userDefs>
				<v:ud v:nameU="visVersion" v:val="VT0(14):26"/>
			</v:userDefs>
			<path d="M20.58 581.23 L16.65 568.51 L12.51 581.23 L-0.86 581.23 L9.96 589.09 L5.83 601.8 L16.65 593.94 L27.46 601.8
						 L23.33 589.09 L34.15 581.23 L20.58 581.23 Z" class="st5"/>
		</g>
		<g id="shape93-35" v:mID="93" v:groupContext="shape" transform="translate(212.125,-521.803)">
			<title>Star 5.93</title>
			<v:userDefs>
				<v:ud v:nameU="visVersion" v:val="VT0(14):26"/>
			</v:userDefs>
			<path d="M20.58 581.23 L16.65 568.51 L12.51 581.23 L-0.86 581.23 L9.96 589.09 L5.83 601.8 L16.65 593.94 L27.46 601.8
						 L23.33 589.09 L34.15 581.23 L20.58 581.23 Z" class="st5"/>
		</g>
		<g id="shape94-37" v:mID="94" v:groupContext="shape" transform="translate(288.071,-521.803)">
			<title>Star 5.94</title>
			<v:userDefs>
				<v:ud v:nameU="visVersion" v:val="VT0(14):26"/>
			</v:userDefs>
			<path d="M20.58 581.23 L16.65 568.51 L12.51 581.23 L-0.86 581.23 L9.96 589.09 L5.83 601.8 L16.65 593.94 L27.46 601.8
						 L23.33 589.09 L34.15 581.23 L20.58 581.23 Z" class="st5"/>
		</g>
		<g id="shape95-39" v:mID="95" v:groupContext="shape" transform="translate(364.363,-521.803)">
			<title>Star 5.95</title>
			<v:userDefs>
				<v:ud v:nameU="visVersion" v:val="VT0(14):26"/>
			</v:userDefs>
			<path d="M20.58 581.23 L16.65 568.51 L12.51 581.23 L-0.86 581.23 L9.96 589.09 L5.83 601.8 L16.65 593.94 L27.46 601.8
						 L23.33 589.09 L34.15 581.23 L20.58 581.23 Z" class="st5"/>
		</g>
		<g id="shape97-41" v:mID="97" v:groupContext="shape" transform="translate(21.7406,-489.205)">
			<title>Star 5.97</title>
			<v:userDefs>
				<v:ud v:nameU="visVersion" v:val="VT0(14):26"/>
			</v:userDefs>
			<path d="M20.58 581.23 L16.65 568.51 L12.51 581.23 L-0.86 581.23 L9.96 589.09 L5.83 601.8 L16.65 593.94 L27.46 601.8
						 L23.33 589.09 L34.15 581.23 L20.58 581.23 Z" class="st5"/>
		</g>
		<g id="shape98-43" v:mID="98" v:groupContext="shape" transform="translate(97.6863,-489.205)">
			<title>Star 5.98</title>
			<v:userDefs>
				<v:ud v:nameU="visVersion" v:val="VT0(14):26"/>
			</v:userDefs>
			<path d="M20.58 581.23 L16.65 568.51 L12.51 581.23 L-0.86 581.23 L9.96 589.09 L5.83 601.8 L16.65 593.94 L27.46 601.8
						 L23.33 589.09 L34.15 581.23 L20.58 581.23 Z" class="st5"/>
		</g>
		<g id="shape99-45" v:mID="99" v:groupContext="shape" transform="translate(173.979,-489.205)">
			<title>Star 5.99</title>
			<v:userDefs>
				<v:ud v:nameU="visVersion" v:val="VT0(14):26"/>
			</v:userDefs>
			<path d="M20.58 581.23 L16.65 568.51 L12.51 581.23 L-0.86 581.23 L9.96 589.09 L5.83 601.8 L16.65 593.94 L27.46 601.8
						 L23.33 589.09 L34.15 581.23 L20.58 581.23 Z" class="st5"/>
		</g>
		<g id="shape100-47" v:mID="100" v:groupContext="shape" transform="translate(249.924,-489.205)">
			<title>Star 5.100</title>
			<v:userDefs>
				<v:ud v:nameU="visVersion" v:val="VT0(14):26"/>
			</v:userDefs>
			<path d="M20.58 581.23 L16.65 568.51 L12.51 581.23 L-0.86 581.23 L9.96 589.09 L5.83 601.8 L16.65 593.94 L27.46 601.8
						 L23.33 589.09 L34.15 581.23 L20.58 581.23 Z" class="st5"/>
		</g>
		<g id="shape101-49" v:mID="101" v:groupContext="shape" transform="translate(326.217,-489.205)">
			<title>Star 5.101</title>
			<v:userDefs>
				<v:ud v:nameU="visVersion" v:val="VT0(14):26"/>
			</v:userDefs>
			<path d="M20.58 581.23 L16.65 568.51 L12.51 581.23 L-0.86 581.23 L9.96 589.09 L5.83 601.8 L16.65 593.94 L27.46 601.8
						 L23.33 589.09 L34.15 581.23 L20.58 581.23 Z" class="st5"/>
		</g>
		<g id="shape102-51" v:mID="102" v:groupContext="shape" transform="translate(402.509,-489.205)">
			<title>Star 5.102</title>
			<v:userDefs>
				<v:ud v:nameU="visVersion" v:val="VT0(14):26"/>
			</v:userDefs>
			<path d="M20.58 581.23 L16.65 568.51 L12.51 581.23 L-0.86 581.23 L9.96 589.09 L5.83 601.8 L16.65 593.94 L27.46 601.8
						 L23.33 589.09 L34.15 581.23 L20.58 581.23 Z" class="st5"/>
		</g>
		<g id="shape103-53" v:mID="103" v:groupContext="shape" transform="translate(59.8868,-456.955)">
			<title>Star 5.103</title>
			<v:userDefs>
				<v:ud v:nameU="visVersion" v:val="VT0(14):26"/>
			</v:userDefs>
			<path d="M20.58 581.23 L16.65 568.51 L12.51 581.23 L-0.86 581.23 L9.96 589.09 L5.83 601.8 L16.65 593.94 L27.46 601.8
						 L23.33 589.09 L34.15 581.23 L20.58 581.23 Z" class="st5"/>
		</g>
		<g id="shape104-55" v:mID="104" v:groupContext="shape" transform="translate(135.833,-456.955)">
			<title>Star 5.104</title>
			<v:userDefs>
				<v:ud v:nameU="visVersion" v:val="VT0(14):26"/>
			</v:userDefs>
			<path d="M20.58 581.23 L16.65 568.51 L12.51 581.23 L-0.86 581.23 L9.96 589.09 L5.83 601.8 L16.65 593.94 L27.46 601.8
						 L23.33 589.09 L34.15 581.23 L20.58 581.23 Z" class="st5"/>
		</g>
		<g id="shape105-57" v:mID="105" v:groupContext="shape" transform="translate(212.125,-456.955)">
			<title>Star 5.105</title>
			<v:userDefs>
				<v:ud v:nameU="visVersion" v:val="VT0(14):26"/>
			</v:userDefs>
			<path d="M20.58 581.23 L16.65 568.51 L12.51 581.23 L-0.86 581.23 L9.96 589.09 L5.83 601.8 L16.65 593.94 L27.46 601.8
						 L23.33 589.09 L34.15 581.23 L20.58 581.23 Z" class="st5"/>
		</g>
		<g id="shape106-59" v:mID="106" v:groupContext="shape" transform="translate(288.071,-456.955)">
			<title>Star 5.106</title>
			<v:userDefs>
				<v:ud v:nameU="visVersion" v:val="VT0(14):26"/>
			</v:userDefs>
			<path d="M20.58 581.23 L16.65 568.51 L12.51 581.23 L-0.86 581.23 L9.96 589.09 L5.83 601.8 L16.65 593.94 L27.46 601.8
						 L23.33 589.09 L34.15 581.23 L20.58 581.23 Z" class="st5"/>
		</g>
		<g id="shape107-61" v:mID="107" v:groupContext="shape" transform="translate(364.363,-456.955)">
			<title>Star 5.107</title>
			<v:userDefs>
				<v:ud v:nameU="visVersion" v:val="VT0(14):26"/>
			</v:userDefs>
			<path d="M20.58 581.23 L16.65 568.51 L12.51 581.23 L-0.86 581.23 L9.96 589.09 L5.83 601.8 L16.65 593.94 L27.46 601.8
						 L23.33 589.09 L34.15 581.23 L20.58 581.23 Z" class="st5"/>
		</g>
		<g id="shape109-63" v:mID="109" v:groupContext="shape" transform="translate(21.7406,-424.704)">
			<title>Star 5.109</title>
			<v:userDefs>
				<v:ud v:nameU="visVersion" v:val="VT0(14):26"/>
			</v:userDefs>
			<path d="M20.58 581.23 L16.65 568.51 L12.51 581.23 L-0.86 581.23 L9.96 589.09 L5.83 601.8 L16.65 593.94 L27.46 601.8
						 L23.33 589.09 L34.15 581.23 L20.58 581.23 Z" class="st5"/>
		</g>
		<g id="shape110-65" v:mID="110" v:groupContext="shape" transform="translate(97.6863,-424.704)">
			<title>Star 5.110</title>
			<v:userDefs>
				<v:ud v:nameU="visVersion" v:val="VT0(14):26"/>
			</v:userDefs>
			<path d="M20.58 581.23 L16.65 568.51 L12.51 581.23 L-0.86 581.23 L9.96 589.09 L5.83 601.8 L16.65 593.94 L27.46 601.8
						 L23.33 589.09 L34.15 581.23 L20.58 581.23 Z" class="st5"/>
		</g>
		<g id="shape111-67" v:mID="111" v:groupContext="shape" transform="translate(173.979,-424.704)">
			<title>Star 5.111</title>
			<v:userDefs>
				<v:ud v:nameU="visVersion" v:val="VT0(14):26"/>
			</v:userDefs>
			<path d="M20.58 581.23 L16.65 568.51 L12.51 581.23 L-0.86 581.23 L9.96 589.09 L5.83 601.8 L16.65 593.94 L27.46 601.8
						 L23.33 589.09 L34.15 581.23 L20.58 581.23 Z" class="st5"/>
		</g>
		<g id="shape112-69" v:mID="112" v:groupContext="shape" transform="translate(249.924,-424.704)">
			<title>Star 5.112</title>
			<v:userDefs>
				<v:ud v:nameU="visVersion" v:val="VT0(14):26"/>
			</v:userDefs>
			<path d="M20.58 581.23 L16.65 568.51 L12.51 581.23 L-0.86 581.23 L9.96 589.09 L5.83 601.8 L16.65 593.94 L27.46 601.8
						 L23.33 589.09 L34.15 581.23 L20.58 581.23 Z" class="st5"/>
		</g>
		<g id="shape113-71" v:mID="113" v:groupContext="shape" transform="translate(326.217,-424.704)">
			<title>Star 5.113</title>
			<v:userDefs>
				<v:ud v:nameU="visVersion" v:val="VT0(14):26"/>
			</v:userDefs>
			<path d="M20.58 581.23 L16.65 568.51 L12.51 581.23 L-0.86 581.23 L9.96 589.09 L5.83 601.8 L16.65 593.94 L27.46 601.8
						 L23.33 589.09 L34.15 581.23 L20.58 581.23 Z" class="st5"/>
		</g>
		<g id="shape114-73" v:mID="114" v:groupContext="shape" transform="translate(402.509,-424.704)">
			<title>Star 5.114</title>
			<v:userDefs>
				<v:ud v:nameU="visVersion" v:val="VT0(14):26"/>
			</v:userDefs>
			<path d="M20.58 581.23 L16.65 568.51 L12.51 581.23 L-0.86 581.23 L9.96 589.09 L5.83 601.8 L16.65 593.94 L27.46 601.8
						 L23.33 589.09 L34.15 581.23 L20.58 581.23 Z" class="st5"/>
		</g>
		<g id="shape115-75" v:mID="115" v:groupContext="shape" transform="translate(59.8868,-392.106)">
			<title>Star 5.115</title>
			<v:userDefs>
				<v:ud v:nameU="visVersion" v:val="VT0(14):26"/>
			</v:userDefs>
			<path d="M20.58 581.23 L16.65 568.51 L12.51 581.23 L-0.86 581.23 L9.96 589.09 L5.83 601.8 L16.65 593.94 L27.46 601.8
						 L23.33 589.09 L34.15 581.23 L20.58 581.23 Z" class="st5"/>
		</g>
		<g id="shape116-77" v:mID="116" v:groupContext="shape" transform="translate(135.833,-392.106)">
			<title>Star 5.116</title>
			<v:userDefs>
				<v:ud v:nameU="visVersion" v:val="VT0(14):26"/>
			</v:userDefs>
			<path d="M20.58 581.23 L16.65 568.51 L12.51 581.23 L-0.86 581.23 L9.96 589.09 L5.83 601.8 L16.65 593.94 L27.46 601.8
						 L23.33 589.09 L34.15 581.23 L20.58 581.23 Z" class="st5"/>
		</g>
		<g id="shape117-79" v:mID="117" v:groupContext="shape" transform="translate(212.125,-392.106)">
			<title>Star 5.117</title>
			<v:userDefs>
				<v:ud v:nameU="visVersion" v:val="VT0(14):26"/>
			</v:userDefs>
			<path d="M20.58 581.23 L16.65 568.51 L12.51 581.23 L-0.86 581.23 L9.96 589.09 L5.83 601.8 L16.65 593.94 L27.46 601.8
						 L23.33 589.09 L34.15 581.23 L20.58 581.23 Z" class="st5"/>
		</g>
		<g id="shape118-81" v:mID="118" v:groupContext="shape" transform="translate(288.071,-392.106)">
			<title>Star 5.118</title>
			<v:userDefs>
				<v:ud v:nameU="visVersion" v:val="VT0(14):26"/>
			</v:userDefs>
			<path d="M20.58 581.23 L16.65 568.51 L12.51 581.23 L-0.86 581.23 L9.96 589.09 L5.83 601.8 L16.65 593.94 L27.46 601.8
						 L23.33 589.09 L34.15 581.23 L20.58 581.23 Z" class="st5"/>
		</g>
		<g id="shape119-83" v:mID="119" v:groupContext="shape" transform="translate(364.363,-392.106)">
			<title>Star 5.119</title>
			<v:userDefs>
				<v:ud v:nameU="visVersion" v:val="VT0(14):26"/>
			</v:userDefs>
			<path d="M20.58 581.23 L16.65 568.51 L12.51 581.23 L-0.86 581.23 L9.96 589.09 L5.83 601.8 L16.65 593.94 L27.46 601.8
						 L23.33 589.09 L34.15 581.23 L20.58 581.23 Z" class="st5"/>
		</g>
		<g id="shape121-85" v:mID="121" v:groupContext="shape" transform="translate(21.7406,-359.855)">
			<title>Star 5.121</title>
			<v:userDefs>
				<v:ud v:nameU="visVersion" v:val="VT0(14):26"/>
			</v:userDefs>
			<path d="M20.58 581.23 L16.65 568.51 L12.51 581.23 L-0.86 581.23 L9.96 589.09 L5.83 601.8 L16.65 593.94 L27.46 601.8
						 L23.33 589.09 L34.15 581.23 L20.58 581.23 Z" class="st5"/>
		</g>
		<g id="shape122-87" v:mID="122" v:groupContext="shape" transform="translate(97.6863,-359.855)">
			<title>Star 5.122</title>
			<v:userDefs>
				<v:ud v:nameU="visVersion" v:val="VT0(14):26"/>
			</v:userDefs>
			<path d="M20.58 581.23 L16.65 568.51 L12.51 581.23 L-0.86 581.23 L9.96 589.09 L5.83 601.8 L16.65 593.94 L27.46 601.8
						 L23.33 589.09 L34.15 581.23 L20.58 581.23 Z" class="st5"/>
		</g>
		<g id="shape123-89" v:mID="123" v:groupContext="shape" transform="translate(173.979,-359.855)">
			<title>Star 5.123</title>
			<v:userDefs>
				<v:ud v:nameU="visVersion" v:val="VT0(14):26"/>
			</v:userDefs>
			<path d="M20.58 581.23 L16.65 568.51 L12.51 581.23 L-0.86 581.23 L9.96 589.09 L5.83 601.8 L16.65 593.94 L27.46 601.8
						 L23.33 589.09 L34.15 581.23 L20.58 581.23 Z" class="st5"/>
		</g>
		<g id="shape124-91" v:mID="124" v:groupContext="shape" transform="translate(249.924,-359.855)">
			<title>Star 5.124</title>
			<v:userDefs>
				<v:ud v:nameU="visVersion" v:val="VT0(14):26"/>
			</v:userDefs>
			<path d="M20.58 581.23 L16.65 568.51 L12.51 581.23 L-0.86 581.23 L9.96 589.09 L5.83 601.8 L16.65 593.94 L27.46 601.8
						 L23.33 589.09 L34.15 581.23 L20.58 581.23 Z" class="st5"/>
		</g>
		<g id="shape125-93" v:mID="125" v:groupContext="shape" transform="translate(326.217,-359.855)">
			<title>Star 5.125</title>
			<v:userDefs>
				<v:ud v:nameU="visVersion" v:val="VT0(14):26"/>
			</v:userDefs>
			<path d="M20.58 581.23 L16.65 568.51 L12.51 581.23 L-0.86 581.23 L9.96 589.09 L5.83 601.8 L16.65 593.94 L27.46 601.8
						 L23.33 589.09 L34.15 581.23 L20.58 581.23 Z" class="st5"/>
		</g>
		<g id="shape126-95" v:mID="126" v:groupContext="shape" transform="translate(402.509,-359.855)">
			<title>Star 5.126</title>
			<v:userDefs>
				<v:ud v:nameU="visVersion" v:val="VT0(14):26"/>
			</v:userDefs>
			<path d="M20.58 581.23 L16.65 568.51 L12.51 581.23 L-0.86 581.23 L9.96 589.09 L5.83 601.8 L16.65 593.94 L27.46 601.8
						 L23.33 589.09 L34.15 581.23 L20.58 581.23 Z" class="st5"/>
		</g>
		<g id="shape127-97" v:mID="127" v:groupContext="shape" transform="translate(59.5401,-327.604)">
			<title>Star 5.127</title>
			<v:userDefs>
				<v:ud v:nameU="visVersion" v:val="VT0(14):26"/>
			</v:userDefs>
			<path d="M20.58 581.23 L16.65 568.51 L12.51 581.23 L-0.86 581.23 L9.96 589.09 L5.83 601.8 L16.65 593.94 L27.46 601.8
						 L23.33 589.09 L34.15 581.23 L20.58 581.23 Z" class="st5"/>
		</g>
		<g id="shape128-99" v:mID="128" v:groupContext="shape" transform="translate(135.486,-327.604)">
			<title>Star 5.128</title>
			<v:userDefs>
				<v:ud v:nameU="visVersion" v:val="VT0(14):26"/>
			</v:userDefs>
			<path d="M20.58 581.23 L16.65 568.51 L12.51 581.23 L-0.86 581.23 L9.96 589.09 L5.83 601.8 L16.65 593.94 L27.46 601.8
						 L23.33 589.09 L34.15 581.23 L20.58 581.23 Z" class="st5"/>
		</g>
		<g id="shape129-101" v:mID="129" v:groupContext="shape" transform="translate(211.778,-327.604)">
			<title>Star 5.129</title>
			<v:userDefs>
				<v:ud v:nameU="visVersion" v:val="VT0(14):26"/>
			</v:userDefs>
			<path d="M20.58 581.23 L16.65 568.51 L12.51 581.23 L-0.86 581.23 L9.96 589.09 L5.83 601.8 L16.65 593.94 L27.46 601.8
						 L23.33 589.09 L34.15 581.23 L20.58 581.23 Z" class="st5"/>
		</g>
		<g id="shape130-103" v:mID="130" v:groupContext="shape" transform="translate(287.724,-327.604)">
			<title>Star 5.130</title>
			<v:userDefs>
				<v:ud v:nameU="visVersion" v:val="VT0(14):26"/>
			</v:userDefs>
			<path d="M20.58 581.23 L16.65 568.51 L12.51 581.23 L-0.86 581.23 L9.96 589.09 L5.83 601.8 L16.65 593.94 L27.46 601.8
						 L23.33 589.09 L34.15 581.23 L20.58 581.23 Z" class="st5"/>
		</g>
		<g id="shape131-105" v:mID="131" v:groupContext="shape" transform="translate(364.016,-327.604)">
			<title>Star 5.131</title>
			<v:userDefs>
				<v:ud v:nameU="visVersion" v:val="VT0(14):26"/>
			</v:userDefs>
			<path d="M20.58 581.23 L16.65 568.51 L12.51 581.23 L-0.86 581.23 L9.96 589.09 L5.83 601.8 L16.65 593.94 L27.46 601.8
						 L23.33 589.09 L34.15 581.23 L20.58 581.23 Z" class="st5"/>
		</g>
		<g id="shape133-107" v:mID="133" v:groupContext="shape" transform="translate(21.7406,-295.006)">
			<title>Star 5.133</title>
			<v:userDefs>
				<v:ud v:nameU="visVersion" v:val="VT0(14):26"/>
			</v:userDefs>
			<path d="M20.58 581.23 L16.65 568.51 L12.51 581.23 L-0.86 581.23 L9.96 589.09 L5.83 601.8 L16.65 593.94 L27.46 601.8
						 L23.33 589.09 L34.15 581.23 L20.58 581.23 Z" class="st5"/>
		</g>
		<g id="shape134-109" v:mID="134" v:groupContext="shape" transform="translate(97.6863,-295.006)">
			<title>Star 5.134</title>
			<v:userDefs>
				<v:ud v:nameU="visVersion" v:val="VT0(14):26"/>
			</v:userDefs>
			<path d="M20.58 581.23 L16.65 568.51 L12.51 581.23 L-0.86 581.23 L9.96 589.09 L5.83 601.8 L16.65 593.94 L27.46 601.8
						 L23.33 589.09 L34.15 581.23 L20.58 581.23 Z" class="st5"/>
		</g>
		<g id="shape135-111" v:mID="135" v:groupContext="shape" transform="translate(173.979,-295.006)">
			<title>Star 5.135</title>
			<v:userDefs>
				<v:ud v:nameU="visVersion" v:val="VT0(14):26"/>
			</v:userDefs>
			<path d="M20.58 581.23 L16.65 568.51 L12.51 581.23 L-0.86 581.23 L9.96 589.09 L5.83 601.8 L16.65 593.94 L27.46 601.8
						 L23.33 589.09 L34.15 581.23 L20.58 581.23 Z" class="st5"/>
		</g>
		<g id="shape136-113" v:mID="136" v:groupContext="shape" transform="translate(249.924,-295.006)">
			<title>Star 5.136</title>
			<v:userDefs>
				<v:ud v:nameU="visVersion" v:val="VT0(14):26"/>
			</v:userDefs>
			<path d="M20.58 581.23 L16.65 568.51 L12.51 581.23 L-0.86 581.23 L9.96 589.09 L5.83 601.8 L16.65 593.94 L27.46 601.8
						 L23.33 589.09 L34.15 581.23 L20.58 581.23 Z" class="st5"/>
		</g>
		<g id="shape137-115" v:mID="137" v:groupContext="shape" transform="translate(326.217,-295.006)">
			<title>Star 5.137</title>
			<v:userDefs>
				<v:ud v:nameU="visVersion" v:val="VT0(14):26"/>
			</v:userDefs>
			<path d="M20.58 581.23 L16.65 568.51 L12.51 581.23 L-0.86 581.23 L9.96 589.09 L5.83 601.8 L16.65 593.94 L27.46 601.8
						 L23.33 589.09 L34.15 581.23 L20.58 581.23 Z" class="st5"/>
		</g>
		<g id="shape138-117" v:mID="138" v:groupContext="shape" transform="translate(402.509,-295.006)">
			<title>Star 5.138</title>
			<v:userDefs>
				<v:ud v:nameU="visVersion" v:val="VT0(14):26"/>
			</v:userDefs>
			<path d="M20.58 581.23 L16.65 568.51 L12.51 581.23 L-0.86 581.23 L9.96 589.09 L5.83 601.8 L16.65 593.94 L27.46 601.8
						 L23.33 589.09 L34.15 581.23 L20.58 581.23 Z" class="st5"/>
		</g>
	</g>
</svg>
