<?xml version="1.0" encoding="UTF-8" standalone="no"?>
<!-- Generated by Microsoft Visio 11.0, SVG Export, v1.0 flag4.svg Page-3 -->

<svg
   xmlns:v="http://schemas.microsoft.com/visio/2003/SVGExtensions/"
   xmlns:dc="http://purl.org/dc/elements/1.1/"
   xmlns:cc="http://creativecommons.org/ns#"
   xmlns:rdf="http://www.w3.org/1999/02/22-rdf-syntax-ns#"
   xmlns:svg="http://www.w3.org/2000/svg"
   xmlns="http://www.w3.org/2000/svg"
   xmlns:sodipodi="http://sodipodi.sourceforge.net/DTD/sodipodi-0.dtd"
   xmlns:inkscape="http://www.inkscape.org/namespaces/inkscape"
   width="50in"
   height="11in"
   viewBox="0 0 3600 792"
   xml:space="preserve"
   color-interpolation-filters="sRGB"
   class="st4"
   version="1.1"
   id="svg5302"
   sodipodi:docname="flag4.svg"
   inkscape:version="0.92.2 (5c3e80d, 2017-08-06)"><metadata
     id="metadata5308"><rdf:RDF><cc:Work
         rdf:about=""><dc:format>image/svg+xml</dc:format><dc:type
           rdf:resource="http://purl.org/dc/dcmitype/StillImage" /><dc:title></dc:title></cc:Work></rdf:RDF></metadata><defs
     id="defs5306" /><sodipodi:namedview
     pagecolor="#ffffff"
     bordercolor="#666666"
     borderopacity="1"
     objecttolerance="10"
     gridtolerance="10"
     guidetolerance="10"
     inkscape:pageopacity="0"
     inkscape:pageshadow="2"
     inkscape:window-width="1680"
     inkscape:window-height="997"
     id="namedview5304"
     showgrid="false"
     inkscape:zoom="0.94666666"
     inkscape:cx="1876.5705"
     inkscape:cy="894.15747"
     inkscape:window-x="3192"
     inkscape:window-y="-8"
     inkscape:window-maximized="1"
     inkscape:current-layer="svg5302" /><v:documentProperties
     v:langID="1033"
     v:viewMarkup="false" /><style
     type="text/css"
     id="style5216"><![CDATA[
		.st1 {fill:#e8eef7;stroke:#000000;stroke-linecap:round;stroke-linejoin:round;stroke-width:0.24}
		.st2 {fill:#ff0000;stroke:#000000;stroke-linecap:round;stroke-linejoin:round;stroke-width:0.24}
		.st3 {fill:#ffffff;stroke:#000000;stroke-linecap:round;stroke-linejoin:round;stroke-width:0.24}
		.st4 {fill:none;fill-rule:evenodd;font-size:12px;overflow:visible;stroke-linecap:square;stroke-miterlimit:3}
	]]></style><g
     transform="translate(1098,-18)"
     v:groupContext="shape"
     v:mID="1"
     id="shape1-1"><title
       id="title5220">Rectangle.1</title><v:userDefs><v:ud
         v:val="VT0(14):26"
         v:nameU="visVersion" /></v:userDefs><rect
       style="fill:#e8eef7;stroke:#000000;stroke-width:0.23999999;stroke-linecap:round;stroke-linejoin:round"
       id="rect5222"
       class="st1"
       height="756"
       width="1404"
       y="36"
       x="0" /></g><g
     transform="translate(1116,-36)"
     v:groupContext="shape"
     v:mID="2"
     id="shape2-3"><title
       id="title5225">Rectangle</title><v:userDefs><v:ud
         v:val="VT0(14):26"
         v:nameU="visVersion" /></v:userDefs><rect
       style="fill:#ff0000;stroke:#000000;stroke-width:0.23999999;stroke-linecap:round;stroke-linejoin:round"
       id="rect5227"
       class="st2"
       height="55.368"
       width="1368"
       y="736.63202"
       x="0" /></g><g
     transform="translate(1116,-91.4063)"
     v:groupContext="shape"
     v:mID="3"
     id="shape3-5"><title
       id="title5230">Rectangle.2</title><v:userDefs><v:ud
         v:val="VT0(14):26"
         v:nameU="visVersion" /></v:userDefs><rect
       style="fill:#ffffff;stroke:#000000;stroke-width:0.23999999;stroke-linecap:round;stroke-linejoin:round"
       id="rect5232"
       class="st3"
       height="55.368"
       width="1368"
       y="736.63202"
       x="0" /></g><g
     transform="translate(1116,-146.832)"
     v:groupContext="shape"
     v:mID="4"
     id="shape4-7"><title
       id="title5235">Rectangle.3</title><v:userDefs><v:ud
         v:val="VT0(14):26"
         v:nameU="visVersion" /></v:userDefs><rect
       style="fill:#ff0000;stroke:#000000;stroke-width:0.23999999;stroke-linecap:round;stroke-linejoin:round"
       id="rect5237"
       class="st2"
       height="55.368"
       width="1368"
       y="736.63202"
       x="0" /></g><g
     transform="translate(1116,-202.238)"
     v:groupContext="shape"
     v:mID="5"
     id="shape5-9"><title
       id="title5240">Rectangle.4</title><v:userDefs><v:ud
         v:val="VT0(14):26"
         v:nameU="visVersion" /></v:userDefs><rect
       style="fill:#ffffff;stroke:#000000;stroke-width:0.23999999;stroke-linecap:round;stroke-linejoin:round"
       id="rect5242"
       class="st3"
       height="55.368"
       width="1368"
       y="736.63202"
       x="0" /></g><g
     transform="translate(1116,-257.644)"
     v:groupContext="shape"
     v:mID="6"
     id="shape6-11"><title
       id="title5245">Rectangle.5</title><v:userDefs><v:ud
         v:val="VT0(14):26"
         v:nameU="visVersion" /></v:userDefs><rect
       style="fill:#ff0000;stroke:#000000;stroke-width:0.23999999;stroke-linecap:round;stroke-linejoin:round"
       id="rect5247"
       class="st2"
       height="55.368"
       width="1368"
       y="736.63202"
       x="0" /></g><g
     transform="translate(1116,-313.05)"
     v:groupContext="shape"
     v:mID="7"
     id="shape7-13"><title
       id="title5250">Rectangle.6</title><v:userDefs><v:ud
         v:val="VT0(14):26"
         v:nameU="visVersion" /></v:userDefs><rect
       style="fill:#ffffff;stroke:#000000;stroke-width:0.23999999;stroke-linecap:round;stroke-linejoin:round"
       id="rect5252"
       class="st3"
       height="55.368"
       width="1368"
       y="736.63202"
       x="0" /></g><g
     transform="translate(1663.31,-368.476)"
     v:groupContext="shape"
     v:mID="8"
     id="shape8-15"><title
       id="title5255">Rectangle.7</title><v:userDefs><v:ud
         v:val="VT0(14):26"
         v:nameU="visVersion" /></v:userDefs><rect
       style="fill:#ff0000;stroke:#000000;stroke-width:0.23999999;stroke-linecap:round;stroke-linejoin:round"
       id="rect5257"
       class="st2"
       height="55.368"
       width="820.68799"
       y="736.63202"
       x="0" /></g><g
     transform="translate(1663.31,-423.882)"
     v:groupContext="shape"
     v:mID="9"
     id="shape9-17"><title
       id="title5260">Rectangle.8</title><v:userDefs><v:ud
         v:val="VT0(14):26"
         v:nameU="visVersion" /></v:userDefs><rect
       style="fill:#ffffff;stroke:#000000;stroke-width:0.23999999;stroke-linecap:round;stroke-linejoin:round"
       id="rect5262"
       class="st3"
       height="55.368"
       width="820.68799"
       y="736.63202"
       x="0" /></g><g
     transform="translate(1663.31,-479.25)"
     v:groupContext="shape"
     v:mID="10"
     id="shape10-19"><title
       id="title5265">Rectangle.9</title><v:userDefs><v:ud
         v:val="VT0(14):26"
         v:nameU="visVersion" /></v:userDefs><rect
       style="fill:#ff0000;stroke:#000000;stroke-width:0.23999999;stroke-linecap:round;stroke-linejoin:round"
       id="rect5267"
       class="st2"
       height="55.368"
       width="820.68799"
       y="736.63202"
       x="0" /></g><g
     transform="translate(1663.31,-534.656)"
     v:groupContext="shape"
     v:mID="11"
     id="shape11-21"><title
       id="title5270">Rectangle.10</title><v:userDefs><v:ud
         v:val="VT0(14):26"
         v:nameU="visVersion" /></v:userDefs><rect
       style="fill:#ffffff;stroke:#000000;stroke-width:0.23999999;stroke-linecap:round;stroke-linejoin:round"
       id="rect5272"
       class="st3"
       height="55.368"
       width="820.68799"
       y="736.63202"
       x="0" /></g><g
     transform="translate(1663.31,-590.082)"
     v:groupContext="shape"
     v:mID="12"
     id="shape12-23"><title
       id="title5275">Rectangle.11</title><v:userDefs><v:ud
         v:val="VT0(14):26"
         v:nameU="visVersion" /></v:userDefs><rect
       style="fill:#ff0000;stroke:#000000;stroke-width:0.23999999;stroke-linecap:round;stroke-linejoin:round"
       id="rect5277"
       class="st2"
       height="55.368"
       width="820.68799"
       y="736.63202"
       x="0" /></g><g
     transform="translate(1663.31,-645.488)"
     v:groupContext="shape"
     v:mID="13"
     id="shape13-25"><title
       id="title5280">Rectangle.12</title><v:userDefs><v:ud
         v:val="VT0(14):26"
         v:nameU="visVersion" /></v:userDefs><rect
       style="fill:#ffffff;stroke:#000000;stroke-width:0.23999999;stroke-linecap:round;stroke-linejoin:round"
       id="rect5282"
       class="st3"
       height="55.368"
       width="820.68799"
       y="736.63202"
       x="0" /></g><g
     transform="translate(1663.31,-700.894)"
     v:groupContext="shape"
     v:mID="14"
     id="shape14-27"><title
       id="title5285">Rectangle.13</title><v:userDefs><v:ud
         v:val="VT0(14):26"
         v:nameU="visVersion" /></v:userDefs><rect
       style="fill:#ff0000;stroke:#000000;stroke-width:0.23999999;stroke-linecap:round;stroke-linejoin:round"
       id="rect5287"
       class="st2"
       height="55.368"
       width="820.68799"
       y="736.63202"
       x="0" /></g><g
     transform="translate(1116,-368.28)"
     v:groupContext="shape"
     v:mID="15"
     id="shape15-29"><title
       id="title5290">Rectangle.14</title><v:userDefs><v:ud
         v:val="VT0(14):26"
         v:nameU="visVersion" /></v:userDefs><rect
       style="fill:#e8eef7;stroke:#000000;stroke-width:0.23999999;stroke-linecap:round;stroke-linejoin:round"
       id="rect5292"
       class="st1"
       height="387.72"
       width="547.20001"
       y="404.28"
       x="0" /></g><path
     d="m 1622.42,380.4 h 18.08 l -14.41,10.47 5.51,16.94 -14.41,-10.47 -14.41,10.47 5.5,-16.94 -14.41,-10.47 h 17.81 l 5.51,-16.94 z m -91.12,0 h 18.08 l -14.41,10.47 5.5,16.94 -14.41,-10.47 -14.41,10.47 5.51,-16.94 -14.41,-10.47 h 17.81 l 5.5,-16.94 z m -91.13,0 h 18.08 l -14.41,10.47 5.51,16.94 -14.41,-10.47 -14.41,10.47 5.5,-16.94 -14.41,-10.47 h 17.81 l 5.51,-16.94 z m -91.12,0 h 18.08 l -14.41,10.47 5.5,16.94 -14.41,-10.47 -14.41,10.47 5.51,-16.94 -14.41,-10.47 h 17.81 l 5.5,-16.94 z m -91.13,0 H 1276 l -14.41,10.47 5.51,16.94 -14.41,-10.47 -14.41,10.47 5.5,-16.94 -14.41,-10.47 h 17.81 l 5.51,-16.94 z m -91.12,0 h 18.08 l -14.41,10.47 5.5,16.94 -14.41,-10.47 -14.41,10.47 5.51,-16.94 -14.41,-10.47 h 17.81 l 5.5,-16.94 z m 410.06,-38.81 h 18.08 l -14.41,10.47 5.51,16.94 -14.42,-10.47 -14.41,10.47 5.51,-16.94 -14.41,-10.47 h 17.81 l 5.5,-16.94 z m -91.12,0 h 18.08 l -14.41,10.47 5.5,16.94 -14.41,-10.47 -14.41,10.47 5.5,-16.94 -14.41,-10.47 H 1475 l 5.5,-16.94 z m -91.13,0 h 18.08 l -14.41,10.47 5.51,16.94 -14.42,-10.47 -14.41,10.47 5.51,-16.94 -14.41,-10.47 h 17.81 l 5.5,-16.94 z m -91.12,0 h 18.08 l -14.41,10.47 5.5,16.94 -14.41,-10.47 -14.41,10.47 5.5,-16.94 -14.41,-10.47 h 17.82 l 5.5,-16.94 z m -91.13,0 h 18.08 l -14.41,10.47 5.51,16.94 -14.41,-10.47 -14.42,10.47 5.51,-16.94 -14.41,-10.47 h 17.81 l 5.51,-16.94 z m 410.06,-38.81 h 18.08 l -14.41,10.47 5.51,16.94 -14.41,-10.47 -14.41,10.47 5.5,-16.94 -14.41,-10.47 h 17.81 l 5.51,-16.94 z m -91.12,0 h 18.08 l -14.41,10.47 5.5,16.94 -14.41,-10.47 -14.41,10.47 5.51,-16.94 -14.41,-10.47 h 17.81 l 5.5,-16.94 z m -91.13,0 h 18.08 l -14.41,10.47 5.51,16.94 -14.41,-10.47 -14.41,10.47 5.5,-16.94 -14.41,-10.47 h 17.81 l 5.51,-16.94 z m -91.12,0 h 18.08 l -14.41,10.47 5.5,16.94 -14.41,-10.47 -14.41,10.47 5.51,-16.94 -14.41,-10.47 h 17.81 l 5.5,-16.94 z m -91.13,0 H 1276 l -14.41,10.47 5.51,16.94 -14.41,-10.47 -14.41,10.47 5.5,-16.94 -14.41,-10.47 h 17.81 l 5.51,-16.94 z m -91.12,0 h 18.08 l -14.41,10.47 5.5,16.94 -14.41,-10.47 -14.41,10.47 5.51,-16.94 -14.41,-10.47 h 17.81 l 5.5,-16.94 z m 410.06,-38.82 h 18.08 l -14.41,10.47 5.51,16.94 -14.42,-10.47 -14.41,10.47 5.51,-16.94 -14.41,-10.47 h 17.81 l 5.5,-16.94 z m -91.12,0 h 18.08 l -14.41,10.47 5.5,16.94 -14.41,-10.47 -14.41,10.47 5.5,-16.94 -14.41,-10.47 H 1475 l 5.5,-16.94 z m -91.13,0 h 18.08 l -14.41,10.47 5.51,16.94 -14.42,-10.47 -14.41,10.47 5.51,-16.94 -14.41,-10.47 h 17.81 l 5.5,-16.94 z m -91.12,0 h 18.08 l -14.41,10.47 5.5,16.94 -14.41,-10.47 -14.41,10.47 5.5,-16.94 -14.41,-10.47 h 17.82 l 5.5,-16.94 z m -91.13,0 h 18.08 l -14.41,10.47 5.51,16.94 -14.42,-10.47 -14.41,10.47 5.51,-16.94 -14.41,-10.47 h 17.81 l 5.5,-16.94 z m 410.06,-38.89 h 18.08 l -14.41,10.47 5.51,16.94 -14.41,-10.47 -14.41,10.47 5.5,-16.94 -14.41,-10.47 h 17.81 l 5.51,-16.95 z m -91.12,0 h 18.08 l -14.41,10.47 5.5,16.94 -14.41,-10.47 -14.41,10.47 5.51,-16.94 -14.41,-10.47 h 17.81 l 5.5,-16.95 z m -91.13,0 h 18.08 l -14.41,10.47 5.51,16.94 -14.41,-10.47 -14.41,10.47 5.5,-16.94 -14.41,-10.47 h 17.81 l 5.51,-16.95 z m -91.12,0 h 18.08 l -14.41,10.47 5.5,16.94 -14.41,-10.47 -14.41,10.47 5.51,-16.94 -14.41,-10.47 h 17.81 l 5.5,-16.95 z m -91.13,0 H 1276 l -14.41,10.47 5.51,16.94 -14.41,-10.47 -14.41,10.47 5.5,-16.94 -14.41,-10.47 h 17.81 l 5.51,-16.95 z m -91.12,0 h 18.08 l -14.41,10.47 5.5,16.94 -14.41,-10.47 -14.41,10.47 5.51,-16.94 -14.41,-10.47 h 17.81 l 5.5,-16.95 z m 410.06,-38.73 h 18.08 l -14.41,10.47 5.51,16.94 -14.42,-10.47 -14.41,10.47 5.51,-16.94 -14.41,-10.47 h 17.81 l 5.5,-16.94 z m -91.12,0 h 18.08 l -14.41,10.47 5.5,16.94 -14.41,-10.47 -14.41,10.47 5.5,-16.94 -14.41,-10.47 H 1475 l 5.5,-16.94 z m -91.13,0 h 18.08 l -14.41,10.47 5.51,16.94 -14.42,-10.47 -14.41,10.47 5.51,-16.94 -14.41,-10.47 h 17.81 l 5.5,-16.94 z m -91.12,0 h 18.08 l -14.41,10.47 5.5,16.94 -14.41,-10.47 -14.41,10.47 5.5,-16.94 -14.41,-10.47 h 17.82 l 5.5,-16.94 z m -91.13,0 h 18.08 l -14.41,10.47 5.51,16.94 -14.41,-10.47 -14.42,10.47 5.51,-16.94 -14.41,-10.47 h 17.81 l 5.51,-16.94 z m 410.06,-38.81 h 18.08 l -14.41,10.47 5.51,16.94 -14.41,-10.47 -14.41,10.47 5.5,-16.94 -14.41,-10.47 h 17.81 l 5.51,-16.94 z m -91.12,0 h 18.08 l -14.41,10.47 5.5,16.94 -14.41,-10.47 -14.41,10.47 5.51,-16.94 -14.41,-10.47 h 17.81 l 5.5,-16.94 z m -91.13,0 h 18.08 l -14.41,10.47 5.51,16.94 -14.41,-10.47 -14.41,10.47 5.5,-16.94 -14.41,-10.47 h 17.81 l 5.51,-16.94 z m -91.12,0 h 18.08 l -14.41,10.47 5.5,16.94 -14.41,-10.47 -14.41,10.47 5.51,-16.94 -14.41,-10.47 h 17.81 l 5.5,-16.94 z m -91.13,0 H 1276 l -14.41,10.47 5.51,16.94 -14.41,-10.47 -14.41,10.47 5.5,-16.94 -14.41,-10.47 h 17.81 l 5.51,-16.94 z m -91.12,0 h 18.08 l -14.41,10.47 5.5,16.94 -14.41,-10.47 -14.41,10.47 5.51,-16.94 -14.41,-10.47 h 17.81 l 5.5,-16.94 z m 410.06,-38.82 h 18.08 l -14.41,10.47 5.51,16.94 -14.42,-10.47 -14.41,10.47 5.51,-16.94 -14.41,-10.47 h 17.81 l 5.5,-16.94 z m -91.12,0 h 18.08 l -14.41,10.47 5.5,16.94 -14.41,-10.47 -14.41,10.47 5.5,-16.94 -14.41,-10.47 H 1475 l 5.5,-16.94 z m -91.13,0 h 18.08 l -14.41,10.47 5.51,16.94 -14.42,-10.47 -14.41,10.47 5.51,-16.94 -14.41,-10.47 h 17.81 l 5.5,-16.94 z m -91.12,0 h 18.08 l -14.41,10.47 5.5,16.94 -14.41,-10.47 -14.41,10.47 5.5,-16.94 -14.41,-10.47 h 17.82 l 5.5,-16.94 z m -91.13,0 h 18.08 l -14.41,10.47 5.51,16.94 -14.42,-10.47 -14.41,10.47 5.51,-16.94 -14.41,-10.47 h 17.81 l 5.5,-16.94 z m 410.06,-38.89 h 18.08 l -14.41,10.47 5.51,16.94 -14.41,-10.47 -14.41,10.47 5.5,-16.94 -14.41,-10.47 h 17.81 l 5.51,-16.95 z m -91.12,0 h 18.08 l -14.41,10.47 5.5,16.94 -14.41,-10.47 -14.41,10.47 5.51,-16.94 -14.41,-10.47 h 17.81 l 5.5,-16.95 z m -91.13,0 h 18.08 l -14.41,10.47 5.51,16.94 -14.41,-10.47 -14.41,10.47 5.5,-16.94 -14.41,-10.47 h 17.81 l 5.51,-16.95 z m -91.12,0 h 18.08 l -14.41,10.47 5.5,16.94 -14.41,-10.47 -14.41,10.47 5.51,-16.94 -14.41,-10.47 h 17.81 l 5.5,-16.95 z m -91.13,0 H 1276 l -14.41,10.47 5.51,16.94 -14.41,-10.47 -14.41,10.47 5.5,-16.94 -14.41,-10.47 h 17.81 l 5.51,-16.95 z m -91.12,0 h 18.08 l -14.41,10.47 5.5,16.94 -14.41,-10.47 -14.41,10.47 5.51,-16.94 -14.41,-10.47 h 17.81 l 5.5,-16.95 z M 1125,414 h 528.75 V 45 H 1125 Z"
     class="st1"
     id="path5297"
     inkscape:connector-curvature="0"
     style="fill:#e8eef7;stroke:#000000;stroke-width:0.23999999;stroke-linecap:round;stroke-linejoin:round" /></svg>